<mxfile host="app.diagrams.net" modified="2024-03-14T18:05:32.898Z" agent="Mozilla/5.0 (Macintosh; Intel Mac OS X 10_15_7) AppleWebKit/537.36 (KHTML, like Gecko) Chrome/122.0.0.0 Safari/537.36" etag="sq_-RS0QYKMgUI0Diq4C" version="24.0.6" type="github">
  <diagram name="Page-1" id="Ep2BGduDsKQdUrGad39T">
    <mxGraphModel dx="984" dy="660" grid="1" gridSize="10" guides="1" tooltips="1" connect="1" arrows="1" fold="1" page="1" pageScale="1" pageWidth="850" pageHeight="1100" math="0" shadow="0">
      <root>
        <mxCell id="0" />
        <mxCell id="1" parent="0" />
        <mxCell id="jNIPqct8poSwnwbpCYE3-30" style="edgeStyle=orthogonalEdgeStyle;rounded=0;orthogonalLoop=1;jettySize=auto;html=1;" edge="1" parent="1" source="jNIPqct8poSwnwbpCYE3-2" target="jNIPqct8poSwnwbpCYE3-4">
          <mxGeometry relative="1" as="geometry" />
        </mxCell>
        <mxCell id="jNIPqct8poSwnwbpCYE3-2" value="String" style="ellipse;whiteSpace=wrap;html=1;" vertex="1" parent="1">
          <mxGeometry x="500" y="20" width="190" height="190" as="geometry" />
        </mxCell>
        <mxCell id="jNIPqct8poSwnwbpCYE3-4" value="print String" style="ellipse;whiteSpace=wrap;html=1;" vertex="1" parent="1">
          <mxGeometry x="720" y="235" width="190" height="190" as="geometry" />
        </mxCell>
        <mxCell id="jNIPqct8poSwnwbpCYE3-5" value="" style="edgeStyle=orthogonalEdgeStyle;rounded=0;orthogonalLoop=1;jettySize=auto;html=1;" edge="1" parent="1" source="jNIPqct8poSwnwbpCYE3-6" target="jNIPqct8poSwnwbpCYE3-14">
          <mxGeometry relative="1" as="geometry" />
        </mxCell>
        <mxCell id="jNIPqct8poSwnwbpCYE3-6" value="" style="ellipse;whiteSpace=wrap;html=1;aspect=fixed;" vertex="1" parent="1">
          <mxGeometry x="60" y="235" width="30" height="30" as="geometry" />
        </mxCell>
        <mxCell id="jNIPqct8poSwnwbpCYE3-9" style="edgeStyle=orthogonalEdgeStyle;rounded=0;orthogonalLoop=1;jettySize=auto;html=1;" edge="1" parent="1" source="jNIPqct8poSwnwbpCYE3-10">
          <mxGeometry relative="1" as="geometry">
            <mxPoint x="100" y="555" as="targetPoint" />
          </mxGeometry>
        </mxCell>
        <mxCell id="jNIPqct8poSwnwbpCYE3-10" value="Do not print sting" style="ellipse;whiteSpace=wrap;html=1;" vertex="1" parent="1">
          <mxGeometry x="120" y="460" width="190" height="190" as="geometry" />
        </mxCell>
        <mxCell id="jNIPqct8poSwnwbpCYE3-11" value="" style="ellipse;whiteSpace=wrap;html=1;aspect=fixed;" vertex="1" parent="1">
          <mxGeometry x="70" y="540" width="30" height="30" as="geometry" />
        </mxCell>
        <mxCell id="jNIPqct8poSwnwbpCYE3-12" value="" style="ellipse;whiteSpace=wrap;html=1;aspect=fixed;fillColor=#000000;strokeColor=#6F0000;fontColor=#ffffff;" vertex="1" parent="1">
          <mxGeometry x="77.5" y="547.5" width="15" height="15" as="geometry" />
        </mxCell>
        <mxCell id="jNIPqct8poSwnwbpCYE3-28" value="" style="edgeStyle=orthogonalEdgeStyle;rounded=0;orthogonalLoop=1;jettySize=auto;html=1;" edge="1" parent="1" source="jNIPqct8poSwnwbpCYE3-14" target="jNIPqct8poSwnwbpCYE3-10">
          <mxGeometry relative="1" as="geometry" />
        </mxCell>
        <mxCell id="jNIPqct8poSwnwbpCYE3-29" style="edgeStyle=orthogonalEdgeStyle;rounded=0;orthogonalLoop=1;jettySize=auto;html=1;" edge="1" parent="1" source="jNIPqct8poSwnwbpCYE3-14" target="jNIPqct8poSwnwbpCYE3-2">
          <mxGeometry relative="1" as="geometry">
            <Array as="points">
              <mxPoint x="215" y="115" />
            </Array>
          </mxGeometry>
        </mxCell>
        <mxCell id="jNIPqct8poSwnwbpCYE3-14" value="String" style="ellipse;whiteSpace=wrap;html=1;" vertex="1" parent="1">
          <mxGeometry x="120" y="155" width="190" height="190" as="geometry" />
        </mxCell>
        <UserObject label="begins in t or T" id="jNIPqct8poSwnwbpCYE3-15">
          <mxCell style="text;whiteSpace=wrap;html=1;fontStyle=1;fontSize=17;" vertex="1" parent="1">
            <mxGeometry x="325" y="260" width="130" height="30" as="geometry" />
          </mxCell>
        </UserObject>
        <UserObject label="ends in y or Y" id="jNIPqct8poSwnwbpCYE3-18">
          <mxCell style="text;whiteSpace=wrap;html=1;fontStyle=1;fontSize=17;" vertex="1" parent="1">
            <mxGeometry x="710" y="70" width="125" height="30" as="geometry" />
          </mxCell>
        </UserObject>
        <UserObject label="Finite State Machine Drawing 2" link="https://nvie.com/posts/a-successful-git-branching-model/" id="jNIPqct8poSwnwbpCYE3-19">
          <mxCell style="text;whiteSpace=wrap;html=1;fontStyle=1;fontSize=17;" vertex="1" parent="1">
            <mxGeometry x="90" y="60" width="542.25" height="30" as="geometry" />
          </mxCell>
        </UserObject>
        <mxCell id="jNIPqct8poSwnwbpCYE3-23" value="true" style="text;html=1;align=center;verticalAlign=middle;whiteSpace=wrap;rounded=0;" vertex="1" parent="1">
          <mxGeometry x="395" y="180" width="60" height="30" as="geometry" />
        </mxCell>
        <mxCell id="jNIPqct8poSwnwbpCYE3-25" value="false" style="text;html=1;align=center;verticalAlign=middle;whiteSpace=wrap;rounded=0;" vertex="1" parent="1">
          <mxGeometry x="240" y="360" width="60" height="30" as="geometry" />
        </mxCell>
        <mxCell id="jNIPqct8poSwnwbpCYE3-26" value="true" style="text;html=1;align=center;verticalAlign=middle;whiteSpace=wrap;rounded=0;" vertex="1" parent="1">
          <mxGeometry x="820" y="180" width="60" height="30" as="geometry" />
        </mxCell>
        <mxCell id="jNIPqct8poSwnwbpCYE3-27" value="false" style="text;html=1;align=center;verticalAlign=middle;whiteSpace=wrap;rounded=0;" vertex="1" parent="1">
          <mxGeometry x="365" y="517.5" width="60" height="30" as="geometry" />
        </mxCell>
        <mxCell id="jNIPqct8poSwnwbpCYE3-33" style="edgeStyle=orthogonalEdgeStyle;rounded=0;orthogonalLoop=1;jettySize=auto;html=1;entryX=0.995;entryY=0.547;entryDx=0;entryDy=0;entryPerimeter=0;" edge="1" parent="1" source="jNIPqct8poSwnwbpCYE3-2" target="jNIPqct8poSwnwbpCYE3-10">
          <mxGeometry relative="1" as="geometry">
            <Array as="points">
              <mxPoint x="595" y="564" />
            </Array>
          </mxGeometry>
        </mxCell>
      </root>
    </mxGraphModel>
  </diagram>
</mxfile>
